<svg width="18" height="18" viewBox="0 0 18 18" fill="none" xmlns="http://www.w3.org/2000/svg">
<path fill-rule="evenodd" clip-rule="evenodd" d="M12.3921 11.6245L18 17.2325L17.2336 18L11.6256 12.3921C10.393 13.449 8.79403 14.093 7.0465 14.093C3.16117 14.093 0 10.9318 0 7.04649C-0.00108287 5.16454 0.731753 3.39424 2.06191 2.063C3.39424 0.732835 5.16454 0 7.0465 0C10.9318 0 14.093 3.16117 14.093 7.04649C14.093 8.79403 13.449 10.392 12.3921 11.6245ZM1.08408 7.04649C1.08408 10.3345 3.75958 13.0089 7.0465 13.0089C10.3334 13.0089 13.0089 10.3334 13.0089 7.04649C13.0089 3.75849 10.3334 1.08408 7.0465 1.08408C5.4529 1.08408 3.95471 1.70417 2.82944 2.83052C1.70308 3.95579 1.08299 5.4529 1.08408 7.04649Z" fill="#C5D5E6"/>
</svg>
