<svg width="29" height="16" viewBox="0 0 29 16" fill="none" xmlns="http://www.w3.org/2000/svg">
<path d="M28.2824 14.4498C28.2484 14.3766 28.2168 14.3159 28.1874 14.2672C27.7008 13.3909 26.771 12.3154 25.3986 11.0402L25.3696 11.011L25.355 10.9966L25.3404 10.982H25.3256C24.7027 10.3882 24.3083 9.98892 24.1431 9.78451C23.8409 9.39512 23.7732 9.00098 23.9383 8.60162C24.0551 8.2999 24.4934 7.66268 25.2525 6.68912C25.6517 6.17316 25.9679 5.75964 26.2014 5.44809C27.8855 3.20916 28.6157 1.77845 28.3917 1.1554L28.3047 1.0098C28.2462 0.922148 28.0954 0.841959 27.8523 0.768828C27.6087 0.695851 27.2973 0.683782 26.9175 0.732416L22.7126 0.761464C22.6444 0.737326 22.5472 0.739576 22.4204 0.768828C22.2939 0.798081 22.2306 0.812758 22.2306 0.812758L22.1574 0.849324L22.0993 0.893254C22.0506 0.922301 21.9971 0.973391 21.9386 1.04642C21.8805 1.11919 21.8318 1.2046 21.7929 1.30192C21.3351 2.47974 20.8146 3.57481 20.2305 4.58709C19.8703 5.1907 19.5395 5.71382 19.2374 6.15675C18.9357 6.59952 18.6826 6.92575 18.4784 7.13486C18.2738 7.34418 18.0892 7.51187 17.9234 7.63854C17.7579 7.76527 17.6315 7.81882 17.544 7.79923C17.4563 7.77964 17.3737 7.76021 17.2955 7.74077C17.1593 7.65312 17.0498 7.53391 16.9672 7.38305C16.8842 7.23218 16.8284 7.0423 16.7992 6.81354C16.7701 6.58464 16.7529 6.38775 16.748 6.22221C16.7435 6.05687 16.7456 5.823 16.7554 5.52127C16.7656 5.21939 16.7701 5.01513 16.7701 4.90805C16.7701 4.53809 16.7773 4.13659 16.7918 3.70343C16.8065 3.27027 16.8185 2.92706 16.8284 2.67422C16.8383 2.42113 16.8429 2.15336 16.8429 1.87106C16.8429 1.58877 16.8258 1.36738 16.7918 1.20669C16.7583 1.04622 16.7068 0.890441 16.6389 0.739423C16.5706 0.588558 16.4707 0.471855 16.3396 0.389007C16.2082 0.306262 16.0448 0.240597 15.8505 0.191809C15.3345 0.0750552 14.6775 0.0118965 13.8791 0.00207752C12.0687 -0.0173559 10.9054 0.0995515 10.3895 0.352646C10.1851 0.459581 10.0001 0.60569 9.83474 0.790512C9.65949 1.00474 9.63504 1.12165 9.76156 1.14088C10.3457 1.22838 10.7592 1.4377 11.0026 1.76863L11.0903 1.94399C11.1585 2.07051 11.2266 2.29451 11.2948 2.61567C11.3629 2.93683 11.4068 3.29211 11.4261 3.68129C11.4747 4.39199 11.4747 5.00035 11.4261 5.50644C11.3774 6.01273 11.3314 6.40687 11.2874 6.68917C11.2435 6.97147 11.1778 7.20022 11.0903 7.37538C11.0026 7.55058 10.9442 7.65767 10.915 7.69654C10.8858 7.7354 10.8614 7.7599 10.8421 7.76952C10.7156 7.818 10.584 7.8427 10.4478 7.8427C10.3114 7.8427 10.146 7.77448 9.9514 7.63814C9.75681 7.50179 9.55485 7.31452 9.34553 7.076C9.13622 6.83743 8.90015 6.50404 8.63724 6.07579C8.37453 5.64754 8.10195 5.1414 7.81965 4.55737L7.58609 4.13383C7.44009 3.86135 7.24064 3.4646 6.98754 2.94394C6.73429 2.42307 6.51045 1.91924 6.31586 1.43253C6.23808 1.22812 6.12122 1.0725 5.9655 0.965413L5.89242 0.921483C5.84383 0.882616 5.76584 0.841346 5.65886 0.797365C5.55172 0.753435 5.43993 0.721933 5.32302 0.70255L1.32234 0.731598C0.913523 0.731598 0.636136 0.824214 0.490079 1.00919L0.431625 1.09669C0.402424 1.14543 0.387695 1.22326 0.387695 1.3304C0.387695 1.43749 0.416897 1.56892 0.47535 1.72454C1.05938 3.09716 1.69449 4.42093 2.3807 5.69607C3.0669 6.97121 3.6632 7.99837 4.16924 8.77663C4.67537 9.55545 5.19128 10.2905 5.71695 10.9814C6.24263 11.6726 6.59059 12.1155 6.76084 12.3101C6.93129 12.505 7.06517 12.6508 7.16249 12.7481L7.52759 13.0985C7.7612 13.3321 8.10425 13.612 8.55689 13.938C9.00964 14.2642 9.51087 14.5854 10.0608 14.902C10.6109 15.2181 11.2508 15.476 11.981 15.6755C12.711 15.8752 13.4215 15.9554 14.1127 15.9167H15.7919C16.1324 15.8873 16.3904 15.7802 16.5658 15.5954L16.6239 15.5222C16.6629 15.4641 16.6995 15.3739 16.7333 15.2524C16.7674 15.1307 16.7844 14.9967 16.7844 14.8509C16.7744 14.4324 16.8063 14.0553 16.8791 13.7195C16.9519 13.3838 17.0348 13.1307 17.1276 12.9602C17.2203 12.7899 17.3249 12.6462 17.4414 12.5297C17.5581 12.413 17.6413 12.3423 17.69 12.3179C17.7385 12.2934 17.7772 12.2768 17.8064 12.2668C18.04 12.189 18.315 12.2644 18.6316 12.4933C18.948 12.7221 19.2448 13.0045 19.5224 13.3402C19.7998 13.6762 20.1332 14.0532 20.5225 14.4716C20.912 14.8903 21.2526 15.2015 21.5445 15.4062L21.8364 15.5814C22.0314 15.6983 22.2845 15.8054 22.596 15.9027C22.907 16 23.1795 16.0243 23.4134 15.9757L27.1512 15.9174C27.5209 15.9174 27.8085 15.8562 28.0126 15.7347C28.217 15.6131 28.3385 15.479 28.3777 15.3332C28.4167 15.1873 28.4188 15.0217 28.3851 14.8365C28.3505 14.6519 28.3163 14.5227 28.2824 14.4498Z" fill="#C5D5E6"/>
</svg>
