<svg width="587" height="473" viewBox="0 0 587 473" fill="none" xmlns="http://www.w3.org/2000/svg">
<g filter="url(#filter0_d_0_1357)">
<g filter="url(#filter1_d_0_1357)">
<path fill-rule="evenodd" clip-rule="evenodd" d="M243.41 191.782C219.5 185.691 193.532 188.954 174.292 202.195C140.028 227.102 135.648 274.015 164.667 305.701C200.449 341.872 267.832 340.381 369.856 338.729L394.474 338.428C396.728 338.403 398.757 337.118 399.004 335.578L401.71 318.685C412.826 249.147 420.137 203.639 384.354 167.468C355.336 135.782 306.661 122.252 273.151 139.99C254.166 150.802 243.445 170.624 243.41 191.782Z" fill="#B74256"/>
<path fill-rule="evenodd" clip-rule="evenodd" d="M244.784 178.712C220.874 172.622 194.906 175.884 175.666 189.125C141.402 214.032 137.022 260.945 166.041 292.631C201.823 328.802 269.206 327.311 371.23 325.659L395.848 325.358C398.102 325.333 400.131 324.048 400.378 322.508L403.084 305.615C414.2 236.077 421.511 190.569 385.728 154.398C356.71 122.712 308.035 109.182 274.525 126.92C255.54 137.732 244.82 157.554 244.784 178.712Z" fill="url(#paint0_linear_0_1357)"/>
</g>
<g filter="url(#filter2_d_0_1357)">
<path fill-rule="evenodd" clip-rule="evenodd" d="M153.21 410.433C166.949 405.676 171.998 392.076 164.488 380.058C156.978 368.039 139.753 362.153 126.014 366.91C112.275 371.667 107.226 385.266 114.736 397.285C122.246 409.303 139.471 415.19 153.21 410.433Z" stroke="#B74256" stroke-width="10"/>
<path fill-rule="evenodd" clip-rule="evenodd" d="M152.318 405.05C166.419 401.508 172.634 388.401 166.2 375.774C159.766 363.146 143.12 355.781 129.019 359.322C114.918 362.864 108.702 375.971 115.136 388.599C121.57 401.226 138.217 408.591 152.318 405.05Z" stroke="#E73453" stroke-width="10"/>
</g>
<g filter="url(#filter3_d_0_1357)">
<path fill-rule="evenodd" clip-rule="evenodd" d="M100.212 281.093C110.964 275.826 113.727 264.203 106.382 255.133C99.0371 246.063 84.3664 242.98 73.614 248.248C62.8615 253.515 60.0991 265.138 67.4439 274.208C74.7887 283.278 89.4594 286.36 100.212 281.093Z" fill="#B74256"/>
<path fill-rule="evenodd" clip-rule="evenodd" d="M100.104 275.843C111.274 271.533 115.039 260.195 108.513 250.519C101.986 240.843 87.6403 236.494 76.4697 240.804C65.2991 245.114 61.5342 256.452 68.0605 266.127C74.5869 275.803 88.9331 280.153 100.104 275.843Z" fill="#E73453"/>
</g>
<g filter="url(#filter4_d_0_1357)">
<path fill-rule="evenodd" clip-rule="evenodd" d="M490.14 193.33C500.892 188.063 503.654 176.44 496.31 167.37C488.965 158.3 474.294 155.217 463.542 160.485C452.789 165.752 450.027 177.374 457.372 186.445C464.716 195.515 479.387 198.597 490.14 193.33Z" fill="#B74256"/>
<path fill-rule="evenodd" clip-rule="evenodd" d="M490.031 188.08C501.202 183.769 504.967 172.432 498.441 162.756C491.914 153.08 477.568 148.731 466.397 153.041C455.227 157.351 451.462 168.688 457.988 178.364C464.515 188.04 478.861 192.39 490.031 188.08Z" fill="url(#paint1_linear_0_1357)"/>
</g>
<g filter="url(#filter5_d_0_1357)">
<rect x="7.40039" y="351.732" width="86.5414" height="42.2644" rx="19" transform="rotate(-29 7.40039 351.732)" fill="#B74256"/>
<rect x="9.22461" y="344.486" width="86.5414" height="42.2644" rx="19" transform="rotate(-29 9.22461 344.486)" fill="#E73453"/>
</g>
<g filter="url(#filter6_d_0_1357)">
<rect x="418.862" y="278.111" width="86.5414" height="42.2644" rx="19" transform="rotate(-29 418.862 278.111)" fill="#B74256"/>
<rect x="420.687" y="270.865" width="86.5414" height="42.2644" rx="19" transform="rotate(-29 420.687 270.865)" fill="url(#paint2_linear_0_1357)"/>
</g>
<g filter="url(#filter7_d_0_1357)">
<rect x="236.864" y="404.979" width="89.5603" height="24.1511" rx="12.0755" transform="rotate(-29 236.864 404.979)" fill="#B74256"/>
<rect x="238.578" y="398.784" width="89.5603" height="24.1511" rx="12.0755" transform="rotate(-29 238.578 398.784)" fill="#E73453"/>
</g>
<g filter="url(#filter8_d_0_1357)">
<rect x="485.836" y="110.874" width="95.0949" height="26.4153" rx="13.2076" transform="rotate(-29 485.836 110.874)" fill="#B74256"/>
<rect x="487.66" y="103.629" width="95.0949" height="26.4153" rx="13.2076" transform="rotate(-29 487.66 103.629)" fill="url(#paint3_linear_0_1357)"/>
</g>
<g filter="url(#filter9_d_0_1357)">
<rect x="356.806" y="95.1878" width="95.0949" height="26.4153" rx="13.2076" transform="rotate(-29 356.806 95.1878)" fill="#B74256"/>
<rect x="358.63" y="87.9425" width="95.0949" height="26.4153" rx="13.2076" transform="rotate(-29 358.63 87.9425)" fill="url(#paint4_linear_0_1357)"/>
</g>
</g>
<defs>
<filter id="filter0_d_0_1357" x="4.22559" y="45.5844" width="578.668" height="389.18" filterUnits="userSpaceOnUse" color-interpolation-filters="sRGB">
<feFlood flood-opacity="0" result="BackgroundImageFix"/>
<feColorMatrix in="SourceAlpha" type="matrix" values="0 0 0 0 0 0 0 0 0 0 0 0 0 0 0 0 0 0 127 0" result="hardAlpha"/>
<feOffset dx="-3" dy="6"/>
<feGaussianBlur stdDeviation="3.5"/>
<feColorMatrix type="matrix" values="0 0 0 0 0 0 0 0 0 0 0 0 0 0 0 0 0 0 0.124745 0"/>
<feBlend mode="normal" in2="BackgroundImageFix" result="effect1_dropShadow_0_1357"/>
<feBlend mode="normal" in="SourceGraphic" in2="effect1_dropShadow_0_1357" result="shape"/>
</filter>
<filter id="filter1_d_0_1357" x="137.458" y="115.043" width="282.743" height="236.358" filterUnits="userSpaceOnUse" color-interpolation-filters="sRGB">
<feFlood flood-opacity="0" result="BackgroundImageFix"/>
<feColorMatrix in="SourceAlpha" type="matrix" values="0 0 0 0 0 0 0 0 0 0 0 0 0 0 0 0 0 0 127 0" result="hardAlpha"/>
<feOffset dy="4"/>
<feGaussianBlur stdDeviation="4"/>
<feColorMatrix type="matrix" values="0 0 0 0 0 0 0 0 0 0 0 0 0 0 0 0 0 0 0.2 0"/>
<feBlend mode="normal" in2="BackgroundImageFix" result="effect1_dropShadow_0_1357"/>
<feBlend mode="normal" in="SourceGraphic" in2="effect1_dropShadow_0_1357" result="shape"/>
</filter>
<filter id="filter2_d_0_1357" x="102.256" y="352.436" width="75.4834" height="71.6433" filterUnits="userSpaceOnUse" color-interpolation-filters="sRGB">
<feFlood flood-opacity="0" result="BackgroundImageFix"/>
<feColorMatrix in="SourceAlpha" type="matrix" values="0 0 0 0 0 0 0 0 0 0 0 0 0 0 0 0 0 0 127 0" result="hardAlpha"/>
<feOffset dy="3"/>
<feGaussianBlur stdDeviation="2"/>
<feColorMatrix type="matrix" values="0 0 0 0 0 0 0 0 0 0 0 0 0 0 0 0 0 0 0.2 0"/>
<feBlend mode="normal" in2="BackgroundImageFix" result="effect1_dropShadow_0_1357"/>
<feBlend mode="normal" in="SourceGraphic" in2="effect1_dropShadow_0_1357" result="shape"/>
</filter>
<filter id="filter3_d_0_1357" x="59.333" y="238.139" width="56.3828" height="52.5253" filterUnits="userSpaceOnUse" color-interpolation-filters="sRGB">
<feFlood flood-opacity="0" result="BackgroundImageFix"/>
<feColorMatrix in="SourceAlpha" type="matrix" values="0 0 0 0 0 0 0 0 0 0 0 0 0 0 0 0 0 0 127 0" result="hardAlpha"/>
<feOffset dy="3"/>
<feGaussianBlur stdDeviation="2"/>
<feColorMatrix type="matrix" values="0 0 0 0 0 0 0 0 0 0 0 0 0 0 0 0 0 0 0.2 0"/>
<feBlend mode="normal" in2="BackgroundImageFix" result="effect1_dropShadow_0_1357"/>
<feBlend mode="normal" in="SourceGraphic" in2="effect1_dropShadow_0_1357" result="shape"/>
</filter>
<filter id="filter4_d_0_1357" x="449.261" y="150.376" width="56.3828" height="52.5253" filterUnits="userSpaceOnUse" color-interpolation-filters="sRGB">
<feFlood flood-opacity="0" result="BackgroundImageFix"/>
<feColorMatrix in="SourceAlpha" type="matrix" values="0 0 0 0 0 0 0 0 0 0 0 0 0 0 0 0 0 0 127 0" result="hardAlpha"/>
<feOffset dy="3"/>
<feGaussianBlur stdDeviation="2"/>
<feColorMatrix type="matrix" values="0 0 0 0 0 0 0 0 0 0 0 0 0 0 0 0 0 0 0.2 0"/>
<feBlend mode="normal" in2="BackgroundImageFix" result="effect1_dropShadow_0_1357"/>
<feBlend mode="normal" in="SourceGraphic" in2="effect1_dropShadow_0_1357" result="shape"/>
</filter>
<filter id="filter5_d_0_1357" x="10.2256" y="308.356" width="92.3545" height="80.5154" filterUnits="userSpaceOnUse" color-interpolation-filters="sRGB">
<feFlood flood-opacity="0" result="BackgroundImageFix"/>
<feColorMatrix in="SourceAlpha" type="matrix" values="0 0 0 0 0 0 0 0 0 0 0 0 0 0 0 0 0 0 127 0" result="hardAlpha"/>
<feOffset dy="3"/>
<feGaussianBlur stdDeviation="2"/>
<feColorMatrix type="matrix" values="0 0 0 0 0 0 0 0 0 0 0 0 0 0 0 0 0 0 0.2 0"/>
<feBlend mode="normal" in2="BackgroundImageFix" result="effect1_dropShadow_0_1357"/>
<feBlend mode="normal" in="SourceGraphic" in2="effect1_dropShadow_0_1357" result="shape"/>
</filter>
<filter id="filter6_d_0_1357" x="421.688" y="234.735" width="92.3545" height="80.5154" filterUnits="userSpaceOnUse" color-interpolation-filters="sRGB">
<feFlood flood-opacity="0" result="BackgroundImageFix"/>
<feColorMatrix in="SourceAlpha" type="matrix" values="0 0 0 0 0 0 0 0 0 0 0 0 0 0 0 0 0 0 127 0" result="hardAlpha"/>
<feOffset dy="3"/>
<feGaussianBlur stdDeviation="2"/>
<feColorMatrix type="matrix" values="0 0 0 0 0 0 0 0 0 0 0 0 0 0 0 0 0 0 0.2 0"/>
<feBlend mode="normal" in2="BackgroundImageFix" result="effect1_dropShadow_0_1357"/>
<feBlend mode="normal" in="SourceGraphic" in2="effect1_dropShadow_0_1357" result="shape"/>
</filter>
<filter id="filter7_d_0_1357" x="237.202" y="358.703" width="91.0781" height="70.061" filterUnits="userSpaceOnUse" color-interpolation-filters="sRGB">
<feFlood flood-opacity="0" result="BackgroundImageFix"/>
<feColorMatrix in="SourceAlpha" type="matrix" values="0 0 0 0 0 0 0 0 0 0 0 0 0 0 0 0 0 0 127 0" result="hardAlpha"/>
<feOffset dy="3"/>
<feGaussianBlur stdDeviation="2"/>
<feColorMatrix type="matrix" values="0 0 0 0 0 0 0 0 0 0 0 0 0 0 0 0 0 0 0.2 0"/>
<feBlend mode="normal" in2="BackgroundImageFix" result="effect1_dropShadow_0_1357"/>
<feBlend mode="normal" in="SourceGraphic" in2="effect1_dropShadow_0_1357" result="shape"/>
</filter>
<filter id="filter8_d_0_1357" x="486.581" y="61.2709" width="96.3125" height="74.962" filterUnits="userSpaceOnUse" color-interpolation-filters="sRGB">
<feFlood flood-opacity="0" result="BackgroundImageFix"/>
<feColorMatrix in="SourceAlpha" type="matrix" values="0 0 0 0 0 0 0 0 0 0 0 0 0 0 0 0 0 0 127 0" result="hardAlpha"/>
<feOffset dy="3"/>
<feGaussianBlur stdDeviation="2"/>
<feColorMatrix type="matrix" values="0 0 0 0 0 0 0 0 0 0 0 0 0 0 0 0 0 0 0.2 0"/>
<feBlend mode="normal" in2="BackgroundImageFix" result="effect1_dropShadow_0_1357"/>
<feBlend mode="normal" in="SourceGraphic" in2="effect1_dropShadow_0_1357" result="shape"/>
</filter>
<filter id="filter9_d_0_1357" x="357.551" y="45.5844" width="96.3125" height="74.962" filterUnits="userSpaceOnUse" color-interpolation-filters="sRGB">
<feFlood flood-opacity="0" result="BackgroundImageFix"/>
<feColorMatrix in="SourceAlpha" type="matrix" values="0 0 0 0 0 0 0 0 0 0 0 0 0 0 0 0 0 0 127 0" result="hardAlpha"/>
<feOffset dy="3"/>
<feGaussianBlur stdDeviation="2"/>
<feColorMatrix type="matrix" values="0 0 0 0 0 0 0 0 0 0 0 0 0 0 0 0 0 0 0.2 0"/>
<feBlend mode="normal" in2="BackgroundImageFix" result="effect1_dropShadow_0_1357"/>
<feBlend mode="normal" in="SourceGraphic" in2="effect1_dropShadow_0_1357" result="shape"/>
</filter>
<linearGradient id="paint0_linear_0_1357" x1="387.835" y1="468.269" x2="753.459" y2="120.169" gradientUnits="userSpaceOnUse">
<stop stop-color="#E53656"/>
<stop offset="1" stop-color="#6082D8"/>
</linearGradient>
<linearGradient id="paint1_linear_0_1357" x1="522.716" y1="198.791" x2="544.36" y2="109.183" gradientUnits="userSpaceOnUse">
<stop stop-color="#E53656"/>
<stop offset="1" stop-color="#6082D8"/>
</linearGradient>
<linearGradient id="paint2_linear_0_1357" x1="507.177" y1="339.058" x2="561.74" y2="234.298" gradientUnits="userSpaceOnUse">
<stop stop-color="#E53656"/>
<stop offset="1" stop-color="#6082D8"/>
</linearGradient>
<linearGradient id="paint3_linear_0_1357" x1="582.699" y1="146.249" x2="605.368" y2="69.7287" gradientUnits="userSpaceOnUse">
<stop stop-color="#E53656"/>
<stop offset="1" stop-color="#6082D8"/>
</linearGradient>
<linearGradient id="paint4_linear_0_1357" x1="453.669" y1="130.563" x2="476.338" y2="54.0422" gradientUnits="userSpaceOnUse">
<stop stop-color="#E53656"/>
<stop offset="1" stop-color="#6082D8"/>
</linearGradient>
</defs>
</svg>
